ffmpeg version N-55863-g9f38fac053-static https://johnvansickle.com/ffmpeg/  Copyright (c) 2000-2021 the FFmpeg developers
  built with gcc 8 (Debian 8.3.0-6)
  configuration: --enable-gpl --enable-version3 --enable-static --disable-debug --disable-ffplay --disable-indev=sndio --disable-outdev=sndio --cc=gcc --enable-fontconfig --enable-frei0r --enable-gnutls --enable-gmp --enable-libgme --enable-gray --enable-libaom --enable-libfribidi --enable-libass --enable-libvmaf --enable-libfreetype --enable-libmp3lame --enable-libopencore-amrnb --enable-libopencore-amrwb --enable-libopenjpeg --enable-librubberband --enable-libsoxr --enable-libspeex --enable-libsrt --enable-libvorbis --enable-libopus --enable-libtheora --enable-libvidstab --enable-libvo-amrwbenc --enable-libvpx --enable-libwebp --enable-libx264 --enable-libx265 --enable-libxml2 --enable-libdav1d --enable-libxvid --enable-libzvbi --enable-libzimg
  libavutil      56. 64.100 / 56. 64.100
  libavcodec     58.119.100 / 58.119.100
  libavformat    58. 65.101 / 58. 65.101
  libavdevice    58. 11.103 / 58. 11.103
  libavfilter     7.100.100 /  7.100.100
  libswscale      5.  8.100 /  5.  8.100
  libswresample   3.  8.100 /  3.  8.100
  libpostproc    55.  8.100 / 55.  8.100
Input #0, mov,mp4,m4a,3gp,3g2,mj2, from '/home/yiaapc5/public_html/f_data/data_userfiles/user_uploads/1525927209/v/1614657864.mp4':
  Metadata:
    major_brand     : isom
    minor_version   : 512
    compatible_brands: isomiso2avc1mp41
    encoder         : Lavf58.54.100
  Duration: 00:02:59.24, start: 0.000000, bitrate: 3928 kb/s
    Stream #0:0(und): Video: h264 (Main) (avc1 / 0x31637661), yuv420p(tv), 724x404 [SAR 1:1 DAR 181:101], 3815 kb/s, 22.66 fps, 100 tbr, 90k tbn, 60 tbc (default)
    Metadata:
      handler_name    : VideoHandler
      vendor_id       : [0][0][0][0]
    Stream #0:1(und): Audio: aac (LC) (mp4a / 0x6134706D), 44100 Hz, stereo, fltp, 108 kb/s (default)
    Metadata:
      handler_name    : SoundHandler
      vendor_id       : [0][0][0][0]
Codec AVOption rc_eq (Set rate control equation. When computing the expression, besides the standard functions defined in the section 'Expression Evaluation', the following functions are available: bits2qp(bits), qp2bits(qp). Also the following constants are available: iTex pTex tex mv fCode iCount mcVar var isI isP isB avgQP qComp avgIITex avgPITex avgPPTex avgBPTex avgTex.) specified for output file #0 (/home/yiaapc5/public_html/f_data/data_userfiles/user_media/1525927209/v/c3f8f93083e8aa1e1ff9f052cf91f435.mob.nomob.mp4) has not been used for any stream. The most likely reason is either wrong type (e.g. a video option with no video streams) or that it is a private option of some encoder which was not actually used for any stream.
Stream mapping:
  Stream #0:0 -> #0:0 (h264 (native) -> h264 (libx264))
  Stream #0:1 -> #0:1 (aac (native) -> aac (native))
Press [q] to stop, [?] for help
[libx264 @ 0x6740500] Application has requested 32 threads. Using a thread count greater than 16 is not recommended.
[libx264 @ 0x6740500] using SAR=3077/3030
[libx264 @ 0x6740500] frame MB size (30x17) > level limit (396)
[libx264 @ 0x6740500] VBV bitrate (10000) > level limit (768)
[libx264 @ 0x6740500] VBV buffer (10000) > level limit (2000)
[libx264 @ 0x6740500] MB rate (15300) > level limit (11880)
[libx264 @ 0x6740500] using cpu capabilities: MMX2 SSE2Fast SSSE3 SSE4.2 AVX
[libx264 @ 0x6740500] profile Constrained Baseline, level 1.3, 4:2:0, 8-bit
[libx264 @ 0x6740500] 264 - core 161 r3040 35417dc - H.264/MPEG-4 AVC codec - Copyleft 2003-2021 - http://www.videolan.org/x264.html - options: cabac=0 ref=1 deblock=1:0:0 analyse=0x1:0 me=hex subme=1 psy=1 psy_rd=1.00:0.00 mixed_ref=0 me_range=16 chroma_me=1 trellis=0 8x8dct=0 cqm=0 deadzone=21,11 fast_pskip=1 chroma_qp_offset=0 threads=32 lookahead_threads=2 sliced_threads=0 nr=0 decimate=1 interlaced=0 bluray_compat=0 constrained_intra=0 bframes=0 weightp=0 keyint=300 keyint_min=25 scenecut=40 intra_refresh=0 rc_lookahead=30 rc=abr mbtree=1 bitrate=1000 ratetol=1.0 qcomp=0.60 qpmin=10 qpmax=51 qpstep=4 vbv_maxrate=10000 vbv_bufsize=10000 nal_hrd=none filler=0 ip_ratio=1.41 aq=1:1.00
Output #0, mp4, to '/home/yiaapc5/public_html/f_data/data_userfiles/user_media/1525927209/v/c3f8f93083e8aa1e1ff9f052cf91f435.mob.nomob.mp4':
  Metadata:
    major_brand     : isom
    minor_version   : 512
    compatible_brands: isomiso2avc1mp41
    encoder         : Lavf58.65.101
    Stream #0:0(und): Video: h264 (avc1 / 0x31637661), yuv420p(tv, progressive), 480x272 [SAR 3077:3030 DAR 181:101], q=2-31, 1000 kb/s, 30 fps, 15360 tbn (default)
    Metadata:
      handler_name    : VideoHandler
      vendor_id       : [0][0][0][0]
      encoder         : Lavc58.119.100 libx264
    Side data:
      cpb: bitrate max/min/avg: 10000000/0/1000000 buffer size: 10000000 vbv_delay: N/A
    Stream #0:1(und): Audio: aac (LC) (mp4a / 0x6134706D), 44100 Hz, stereo, fltp, 108 kb/s (default)
    Metadata:
      handler_name    : SoundHandler
      vendor_id       : [0][0][0][0]
      encoder         : Lavc58.119.100 aac
frame=    3 fps=0.0 q=0.0 size=       0kB time=00:00:01.16 bitrate=   0.3kbits/s dup=2 drop=0 speed=44.5x    frame=  321 fps=0.0 q=28.0 size=    1280kB time=00:00:11.74 bitrate= 892.5kbits/s dup=89 drop=0 speed=22.3x    frame=  692 fps=674 q=29.0 size=    2816kB time=00:00:23.59 bitrate= 977.9kbits/s dup=197 drop=0 speed=  23x    frame= 1019 fps=668 q=28.0 size=    4096kB time=00:00:34.50 bitrate= 972.5kbits/s dup=270 drop=0 speed=22.6x    frame= 1314 fps=648 q=29.0 size=    5632kB time=00:00:44.41 bitrate=1038.7kbits/s dup=339 drop=0 speed=21.9x    frame= 1658 fps=656 q=29.0 size=    7168kB time=00:00:55.79 bitrate=1052.4kbits/s dup=436 drop=0 speed=22.1x    frame= 1987 fps=656 q=29.0 size=    8704kB time=00:01:06.75 bitrate=1068.1kbits/s dup=508 drop=0 speed=  22x    frame= 2366 fps=670 q=27.0 size=    9984kB time=00:01:19.36 bitrate=1030.5kbits/s dup=616 drop=0 speed=22.5x    frame= 2686 fps=666 q=28.0 size=   11520kB time=00:01:30.46 bitrate=1043.2kbits/s dup=676 drop=0 speed=22.4x    frame= 2981 fps=658 q=28.0 size=   13056kB time=00:01:39.89 bitrate=1070.7kbits/s dup=741 drop=0 speed=  22x    frame= 3269 fps=650 q=28.0 size=   14336kB time=00:01:50.01 bitrate=1067.5kbits/s dup=810 drop=0 speed=21.9x    frame= 3569 fps=645 q=29.0 size=   15872kB time=00:01:59.97 bitrate=1083.7kbits/s dup=879 drop=0 speed=21.7x    frame= 3858 fps=639 q=29.0 size=   17152kB time=00:02:09.14 bitrate=1088.0kbits/s dup=944 drop=0 speed=21.4x    More than 1000 frames duplicated
frame= 4118 fps=630 q=29.0 size=   18432kB time=00:02:17.81 bitrate=1095.7kbits/s dup=1006 drop=0 speed=21.1x    frame= 4433 fps=630 q=30.0 size=   19968kB time=00:02:28.74 bitrate=1099.7kbits/s dup=1076 drop=0 speed=21.1x    frame= 4782 fps=634 q=29.0 size=   21504kB time=00:02:39.93 bitrate=1101.4kbits/s dup=1179 drop=0 speed=21.2x    frame= 5072 fps=631 q=29.0 size=   22528kB time=00:02:49.57 bitrate=1088.3kbits/s dup=1246 drop=0 speed=21.1x    frame= 5376 fps=633 q=-1.0 Lsize=   24433kB time=00:02:59.16 bitrate=1117.1kbits/s dup=1316 drop=0 speed=21.1x    
video:21928kB audio:2356kB subtitle:0kB other streams:0kB global headers:0kB muxing overhead: 0.615587%
[libx264 @ 0x6740500] frame I:22    Avg QP:21.20  size: 22060
[libx264 @ 0x6740500] frame P:5354  Avg QP:24.85  size:  4103
[libx264 @ 0x6740500] mb I  I16..4: 10.2%  0.0% 89.8%
[libx264 @ 0x6740500] mb P  I16..4:  3.3%  0.0%  0.0%  P16..4: 56.0%  0.0%  0.0%  0.0%  0.0%    skip:40.7%
[libx264 @ 0x6740500] final ratefactor: 22.54
[libx264 @ 0x6740500] coded y,uvDC,uvAC intra: 56.7% 64.7% 39.3% inter: 26.1% 25.8% 11.2%
[libx264 @ 0x6740500] i16 v,h,dc,p: 21% 50% 19%  9%
[libx264 @ 0x6740500] i4 v,h,dc,ddl,ddr,vr,hd,vl,hu: 20% 34%  9%  6%  7%  6%  7%  4%  8%
[libx264 @ 0x6740500] i8c dc,h,v,p: 34% 39% 20%  7%
[libx264 @ 0x6740500] kb/s:1002.37
[aac @ 0x676cdc0] Qavg: 878.415
